<?xml version="1.0" ?><svg viewBox="0 0 64 64" width="24" height="24" xmlns="http://www.w3.org/2000/svg"><defs><style>.cls-1{fill:none;}.cls-2{fill:#0ADB3F;}.cls-3{fill:none;}</style></defs><title/><g id="Correct"><circle class="cls-1" cx="32" cy="32" r="30"/><path class="cls-2" d="M32,64A32,32,0,1,1,64,32,32,32,0,0,1,32,64ZM32,4A28,28,0,1,0,60,32,28,28,0,0,0,32,4Z"/><path class="cls-3" d="M21,29l5.59,5.59a2,2,0,0,0,2.82,0L43,21a4.24,4.24,0,0,1,6,6L32.24,43.76a6,6,0,0,1-8.48,0L15,35a4.24,4.24,0,0,1,6-6Z"/><path class="cls-2" d="M22.34,45.17l-8.75-8.76A6.24,6.24,0,0,1,18,25.76a6.17,6.17,0,0,1,4.41,1.83L28,33.17,41.59,19.59a6.24,6.24,0,0,1,8.82,8.82L33.66,45.17A8,8,0,0,1,22.34,45.17ZM18,29.76a2.25,2.25,0,0,0-1.59,3.83l8.76,8.75a4,4,0,0,0,5.66,0L47.59,25.59a2.25,2.25,0,1,0-3.18-3.18L30.83,36a4.1,4.1,0,0,1-5.66,0C19.14,30,19.25,29.76,18,29.76Z"/></g></svg>